<svg xmlns="http://www.w3.org/2000/svg" viewBox="0 0 1280 720" role="img" aria-labelledby="title desc">
  <title id="title">Nutronics AI Simulator Dashboard</title><desc id="desc">발표용 시뮬레이션 대시보드 시안</desc>
  <rect width="1280" height="720" rx="32" fill="#f7fbfd"/><rect x="36" y="34" width="1208" height="652" rx="30" fill="#fff" stroke="#dce5ef"/>
  <text x="72" y="82" font-family="system-ui, sans-serif" font-size="30" font-weight="900" fill="#061b33">AI Simulator / Validation Harness</text>
  <text x="72" y="116" font-family="system-ui, sans-serif" font-size="17" font-weight="700" fill="#64748b">AI는 의료 판단이 아니라 반복 검토·문서화·사전 위험 검출에만 사용</text>
  <g font-family="ui-monospace, SFMono-Regular, Menlo, monospace"><rect x="72" y="158" width="280" height="454" rx="22" fill="#0f172a"/><text x="96" y="200" font-size="20" font-weight="900" fill="#7dd3fc">design_params.json</text><text x="96" y="248" font-size="17" fill="#e2e8f0">{</text><text x="112" y="284" font-size="17" fill="#bae6fd">"pillOrientation": "horizontal",</text><text x="112" y="320" font-size="17" fill="#bae6fd">"motor": "MG996R",</text><text x="112" y="356" font-size="17" fill="#bae6fd">"controller": "RPi5",</text><text x="112" y="392" font-size="17" fill="#bae6fd">"sensor": "IR",</text><text x="112" y="428" font-size="17" fill="#bae6fd">"commonGnd": true</text><text x="96" y="464" font-size="17" fill="#e2e8f0">}</text><rect x="96" y="516" width="210" height="44" rx="12" fill="#134e4a"/><text x="120" y="545" font-size="15" font-weight="900" fill="#ccfbf1">README.md / app.js</text></g>
  <g font-family="system-ui, sans-serif" text-anchor="middle"><rect x="440" y="170" width="188" height="104" rx="20" fill="#e8fff8" stroke="#7bdccf"/><text x="534" y="214" font-size="23" font-weight="900" fill="#08765f">Simulator</text><text x="534" y="244" font-size="15" font-weight="800" fill="#0f766e">가로 캡슐 trial</text><rect x="440" y="318" width="188" height="104" rx="20" fill="#eef5ff" stroke="#9ab8f2"/><text x="534" y="362" font-size="23" font-weight="900" fill="#1d4ed8">Static Checks</text><text x="534" y="392" font-size="15" font-weight="800" fill="#2563eb">전원·GND·센서</text><rect x="440" y="466" width="188" height="104" rx="20" fill="#fff7ed" stroke="#f4c86a"/><text x="534" y="510" font-size="23" font-weight="900" fill="#b45309">Harness</text><text x="534" y="540" font-size="15" font-weight="800" fill="#92400e">100회 검증</text></g>
  <path d="M358 384C390 384 398 222 430 222" fill="none" stroke="#0f9f8f" stroke-width="6" stroke-linecap="round"/><path d="M628 222C678 222 686 384 736 384" fill="none" stroke="#0f9f8f" stroke-width="6" stroke-linecap="round"/><path d="M628 370C678 370 686 384 736 384" fill="none" stroke="#2563eb" stroke-width="6" stroke-linecap="round"/><path d="M628 518C678 518 686 384 736 384" fill="none" stroke="#f59e0b" stroke-width="6" stroke-linecap="round"/>
  <g font-family="system-ui, sans-serif"><rect x="742" y="158" width="434" height="454" rx="22" fill="#f8fafc" stroke="#dce5ef"/><text x="772" y="200" font-size="23" font-weight="900" fill="#061b33">validation_report.json</text><rect x="772" y="230" width="138" height="66" rx="16" fill="#dcfce7"/><text x="802" y="272" font-size="31" font-weight="900" fill="#16a34a">PASS</text><rect x="926" y="230" width="204" height="66" rx="16" fill="#eff6ff"/><text x="952" y="272" font-size="22" font-weight="900" fill="#1d4ed8">failure_top3</text><rect x="772" y="332" width="336" height="48" rx="12" fill="#fff"/><text x="794" y="363" font-size="18" font-weight="800" fill="#334155">1. 알약 걸림 · review target</text><rect x="772" y="396" width="336" height="48" rx="12" fill="#fff"/><text x="794" y="427" font-size="18" font-weight="800" fill="#334155">2. IR 감지 실패 · debounce 확인</text><rect x="772" y="460" width="336" height="48" rx="12" fill="#fff"/><text x="794" y="491" font-size="18" font-weight="800" fill="#334155">3. 전원 강하 · GND/SMPS 확인</text><rect x="772" y="542" width="336" height="40" rx="10" fill="#e2e8f0"/><text x="794" y="568" font-size="15" font-weight="900" fill="#334155">scripts/validate-static-site.js</text></g>
  <text x="72" y="654" font-family="system-ui, sans-serif" font-size="16" font-weight="900" fill="#0f766e">발표용 시뮬레이션 · 실제 물리시험과 구분 · 실측 성공률은 장기 테스트 이후 제시</text>
</svg>
